<?xml version='1.0' encoding='utf-8'?>
<svg xmlns:xlink="http://www.w3.org/1999/xlink" xmlns="http://www.w3.org/2000/svg" enable-background="new 0 0 858 510" version="1.1" viewBox="0 0 858 510"> <style type="text/css">.st0{fill:#FFFFFF;} .st1{opacity:0.2;fill:url(#q);enable-background:new ;} .st2{opacity:0.2;fill:url(#h);enable-background:new ;} .st3{opacity:0.2;fill:url(#g);enable-background:new ;} .st4{opacity:0.5;fill:url(#f);enable-background:new ;} .st5{opacity:0.5;fill:url(#e);enable-background:new ;} .st6{opacity:0.5;fill:url(#d);enable-background:new ;} .st7{fill:#438BEB;} .st8{fill:#A3D3FF;} .st9{fill:#C0E4FF;} .st10{fill:#78B6F9;} .st11{fill:#86C5FC;} .st12{fill:none;stroke:#438BEB;stroke-width:2;stroke-linecap:round;stroke-linejoin:round;stroke-miterlimit:10;} .st13{fill:#2C76C6;} .st14{fill:#E9F2FF;} .st15{fill:#3C85C6;} .st16{fill:#4A97D1;} .st17{fill:#52A372;} .st18{fill:#75CC98;} .st19{fill:#3E845B;} .st20{fill:#B5CC76;} .st21{fill:#74843D;} .st22{fill:url(#c);} .st23{clip-path:url(#aa);fill:url(#aa);} .st24{clip-path:url(#y);} .st25{clip-path:url(#w);fill:url(#v);} .st26{clip-path:url(#t);} .st27{clip-path:url(#r);fill:url(#p);} .st28{clip-path:url(#n);} .st29{clip-path:url(#l);fill:url(#k);} .st30{clip-path:url(#i);} .st31{fill:#E3F4FF;}</style> <rect class="st0" width="858" height="510"/> <linearGradient id="q" x1="584.33" x2="688.72" y1="371.06" y2="371.06" gradientTransform="matrix(1 0 0 -1 0 512)" gradientUnits="userSpaceOnUse"> <stop stop-color="#fff" offset="0"/> <stop stop-color="#438BEB" offset="1"/> </linearGradient> <path class="st1" d="m670.96 137.92c-3.24 0-6.27 0.71-8.88 1.92-2.61-1.21-5.64-1.92-8.88-1.92-1.97 0-3.86 0.27-5.63 0.74-5.11-5.43-13.22-8.94-22.35-8.94-10.94 0-20.41 5.04-25.01 12.38-0.96-0.18-1.95-0.29-2.97-0.29-7.13 0-12.91 4.64-12.91 10.35h104.39c0-7.86-7.95-14.24-17.76-14.24z"/> <linearGradient id="h" x1="60.07" x2="115.5" y1="350.81" y2="350.81" gradientTransform="matrix(1 0 0 -1 0 512)" gradientUnits="userSpaceOnUse"> <stop stop-color="#fff" offset="0"/> <stop stop-color="#438BEB" offset="1"/> </linearGradient> <path class="st2" d="m106.06 158.76c-1.72 0-3.33 0.57-4.71 1.54-1.39-0.98-3-1.54-4.71-1.54-1.05 0-2.05 0.22-2.99 0.6-2.71-4.36-7.02-7.19-11.87-7.19-5.81 0-10.84 4.05-13.28 9.95-0.51-0.15-1.03-0.23-1.58-0.23-3.78 0-6.85 3.72-6.85 8.32h55.43c-0.01-6.33-4.24-11.45-9.44-11.45z"/> <linearGradient id="g" x1="129.51" x2="233.74" y1="458.3" y2="458.3" gradientTransform="matrix(1 0 0 -1 0 512)" gradientUnits="userSpaceOnUse"> <stop stop-color="#fff" offset="0"/> <stop stop-color="#438BEB" offset="1"/> </linearGradient> <path class="st3" d="m216.01 49.93c-3.23 0-6.26 0.88-8.87 2.39-2.61-1.51-5.63-2.39-8.87-2.39-1.97 0-3.85 0.33-5.62 0.93-5.1-6.76-13.2-11.13-22.32-11.13-10.92 0-20.38 6.27-24.97 15.41-0.95-0.23-1.94-0.36-2.97-0.36-7.12 0-12.88 5.77-12.88 12.88h104.23c0-9.79-7.94-17.73-17.73-17.73z"/> <linearGradient id="f" x1="206.23" x2="469.2" y1="59.37" y2="59.37" gradientTransform="matrix(1 0 0 -1 0 512)" gradientUnits="userSpaceOnUse"> <stop stop-color="#AED3F4" offset="0"/> <stop stop-color="#B8D8F5" offset=".0876"/> <stop stop-color="#DEEDFB" offset=".4854"/> <stop stop-color="#F6FAFE" offset=".8035"/> <stop stop-color="#fff" offset="1"/> </linearGradient> <polygon class="st4" points="469.2 470.28 206.23 470.28 220.9 434.98 469.2 434.98"/> <linearGradient id="e" x1="530.77" x2="858" y1="59.37" y2="59.37" gradientTransform="matrix(1 0 0 -1 0 512)" gradientUnits="userSpaceOnUse"> <stop stop-color="#AED3F4" offset="0"/> <stop stop-color="#BADAF6" offset=".2212"/> <stop stop-color="#DBEBFA" offset=".6231"/> <stop stop-color="#fff" offset="1"/> </linearGradient> <polygon class="st5" points="858 470.28 530.77 470.28 545.44 434.98 858 434.98"/> <linearGradient id="d" x1="656.54" x2="858" y1="103.27" y2="103.27" gradientTransform="matrix(1 0 0 -1 0 512)" gradientUnits="userSpaceOnUse"> <stop stop-color="#AED3F4" offset="0"/> <stop stop-color="#B3D6F5" offset=".1958"/> <stop stop-color="#C3DEF7" offset=".4436"/> <stop stop-color="#DDEDFA" offset=".7193"/> <stop stop-color="#fff" offset="1"/> </linearGradient> <polygon class="st6" points="858 414.45 656.54 414.45 671.21 403.01 858 403.01"/> <rect class="st7" x="611.98" y="172.14" width="112" height="230.87"/> <rect class="st8" x="600.54" y="183.58" width="112" height="230.87"/> <polygon class="st9" points="723.98 172.14 611.98 172.14 600.54 183.58 712.54 183.58"/> <rect class="st7" x="606.09" y="203.33" width="100.89" height="199.27"/> <rect class="st10" x="607.75" y="205.05" width="97.57" height="31.53"/> <rect class="st11" x="607.75" y="207.59" width="97.57" height="26.44"/> <ellipse class="st7" cx="656.54" cy="221.02" rx="5.44" ry="5.5"/> <rect class="st10" x="607.75" y="237.91" width="97.57" height="31.53"/> <rect class="st11" x="607.75" y="240.45" width="97.57" height="26.44"/> <ellipse class="st7" cx="656.54" cy="253.88" rx="5.44" ry="5.5"/> <rect class="st10" x="607.75" y="270.77" width="97.57" height="31.53"/> <rect class="st11" x="607.75" y="273.31" width="97.57" height="26.44"/> <ellipse class="st7" cx="656.54" cy="286.74" rx="5.44" ry="5.5"/> <rect class="st10" x="607.75" y="303.63" width="97.57" height="31.53"/> <rect class="st11" x="607.75" y="306.18" width="97.57" height="26.44"/> <ellipse class="st7" cx="656.54" cy="319.6" rx="5.44" ry="5.5"/> <rect class="st10" x="607.75" y="336.49" width="97.57" height="31.53"/> <rect class="st11" x="607.75" y="339.04" width="97.57" height="26.44"/> <ellipse class="st7" cx="656.54" cy="352.46" rx="5.44" ry="5.5"/> <rect class="st10" x="607.75" y="369.35" width="97.57" height="31.53"/> <rect class="st11" x="607.75" y="371.9" width="97.57" height="26.44"/> <ellipse class="st7" cx="656.54" cy="385.32" rx="5.44" ry="5.5"/> <circle class="st7" cx="607.98" cy="193.94" r="1.89"/> <circle class="st7" cx="614.05" cy="193.94" r="1.89"/> <circle class="st7" cx="620.12" cy="193.94" r="1.89"/> <path class="st7" d="m692.41 192.05h-0.04c-2.01 0-3.64-1.63-3.64-3.64v-4.83h7.33v4.83c-0.01 2.01-1.64 3.64-3.65 3.64z"/> <path class="st7" d="m697.59 180.68h-5.62c-0.34 0-0.67 0.14-0.91 0.39l-2.34 2.5h7.33l1.91-2.04c0.3-0.32 0.07-0.85-0.37-0.85z"/> <polygon class="st7" points="723.98 403.01 712.54 414.45 712.54 183.58 723.98 172.14"/> <path class="st12" d="m598.68 211.35s-24.73-4.16-24.73 24.73 0 115.96 0 115.96 2.18 26.86-26.86 26.86h-135.28"/> <rect class="st7" x="594.93" y="208.2" width="5.61" height="6.3"/> <path class="st7" d="m464.6 389.39c-13.33-6.5-52.04-11.2-97.73-11.2s-84.41 4.7-97.73 11.2h-4.96v4.98c0 8.94 45.98 16.18 102.7 16.18s102.7-7.25 102.7-16.18v-4.98h-4.98z"/> <ellipse class="st10" cx="366.86" cy="389.39" rx="102.7" ry="16.18"/> <rect class="st7" x="348.92" y="321.45" width="40.66" height="63.17"/> <rect class="st8" x="344.14" y="326.22" width="40.66" height="63.17"/> <polygon class="st7" points="384.81 389.39 389.58 384.62 389.58 321.45 384.81 326.22"/> <path class="st13" d="m364.52 376.17h-0.09c-4.22 0-7.63-3.42-7.63-7.63v-21.45c0-4.22 3.42-7.63 7.63-7.63h0.09c4.22 0 7.63 3.42 7.63 7.63v21.45c0 4.21-3.42 7.63-7.63 7.63z"/> <path class="st7" d="m546.88 323.86h-353.81c-11.87 0-21.48-9.62-21.48-21.48v-202.29c0-11.87 9.62-21.48 21.48-21.48h353.81c11.87 0 21.48 9.62 21.48 21.48v202.28c0 11.87-9.62 21.49-21.48 21.49z"/> <path class="st8" d="m540.65 330.08h-353.81c-11.87 0-21.48-9.62-21.48-21.48v-202.28c0-11.87 9.62-21.48 21.48-21.48h353.81c11.87 0 21.48 9.62 21.48 21.48v202.28c0.01 11.86-9.61 21.48-21.48 21.48z"/> <path class="st0" d="m171.79 310.17v-205.42c0-7.45 6.04-13.48 13.48-13.48h356.95c7.45 0 13.48 6.04 13.48 13.48v205.42c0 7.45-6.04 13.48-13.48 13.48h-356.94c-7.45 0-13.49-6.04-13.49-13.48z"/> <path class="st8" d="m470 129.72h-271.02c-5.35 0-9.68-4.34-9.68-9.68v-0.11c0-5.35 4.34-9.68 9.68-9.68h271.02c5.35 0 9.68 4.34 9.68 9.68v0.11c0 5.34-4.33 9.68-9.68 9.68z"/> <path class="st7" d="m528.52 129.72h-28.31c-5.35 0-9.68-4.34-9.68-9.68v-0.11c0-5.35 4.34-9.68 9.68-9.68h28.31c5.35 0 9.68 4.34 9.68 9.68v0.11c0 5.34-4.33 9.68-9.68 9.68z"/> <path class="st14" d="m235.26 223.24h-37.19c-4.85 0-8.77-3.93-8.77-8.77v-63.07c0-4.85 3.93-8.77 8.77-8.77h37.19c4.85 0 8.77 3.93 8.77 8.77v63.07c0 4.84-3.92 8.77-8.77 8.77z"/> <path class="st8" d="m212.88 159.82h-16.19c-1.11 0-2.02-0.9-2.02-2.02v-0.02c0-1.11 0.9-2.02 2.02-2.02h16.19c1.11 0 2.02 0.9 2.02 2.02v0.02c0 1.12-0.91 2.02-2.02 2.02z"/> <path class="st8" d="m225.54 167.5h-28.85c-1.11 0-2.02-0.9-2.02-2.02v-0.02c0-1.11 0.9-2.02 2.02-2.02h28.85c1.11 0 2.02 0.9 2.02 2.02v0.02c0 1.12-0.91 2.02-2.02 2.02z"/> <path class="st14" d="m303.97 223.24h-37.19c-4.85 0-8.77-3.93-8.77-8.77v-63.07c0-4.85 3.93-8.77 8.77-8.77h37.19c4.85 0 8.77 3.93 8.77 8.77v63.07c0.01 4.84-3.92 8.77-8.77 8.77z"/> <path class="st8" d="m281.59 159.82h-16.19c-1.11 0-2.02-0.9-2.02-2.02v-0.02c0-1.11 0.9-2.02 2.02-2.02h16.19c1.11 0 2.02 0.9 2.02 2.02v0.02c0 1.12-0.9 2.02-2.02 2.02z"/> <path class="st8" d="m294.25 167.5h-28.85c-1.11 0-2.02-0.9-2.02-2.02v-0.02c0-1.11 0.9-2.02 2.02-2.02h28.85c1.11 0 2.02 0.9 2.02 2.02v0.02c0 1.12-0.9 2.02-2.02 2.02z"/> <path class="st14" d="m372.69 223.24h-37.19c-4.85 0-8.77-3.93-8.77-8.77v-63.07c0-4.85 3.93-8.77 8.77-8.77h37.19c4.85 0 8.77 3.93 8.77 8.77v63.07c0 4.84-3.93 8.77-8.77 8.77z"/> <path class="st8" d="m350.3 159.82h-16.19c-1.11 0-2.02-0.9-2.02-2.02v-0.02c0-1.11 0.9-2.02 2.02-2.02h16.19c1.11 0 2.02 0.9 2.02 2.02v0.02c0 1.12-0.9 2.02-2.02 2.02z"/> <path class="st8" d="m362.96 167.5h-28.85c-1.11 0-2.02-0.9-2.02-2.02v-0.02c0-1.11 0.9-2.02 2.02-2.02h28.85c1.11 0 2.02 0.9 2.02 2.02v0.02c0 1.12-0.9 2.02-2.02 2.02z"/> <path class="st14" d="m441.4 223.24h-37.19c-4.85 0-8.77-3.93-8.77-8.77v-63.07c0-4.85 3.93-8.77 8.77-8.77h37.19c4.85 0 8.77 3.93 8.77 8.77v63.07c0 4.84-3.93 8.77-8.77 8.77z"/> <path class="st8" d="m419.02 159.82h-16.19c-1.11 0-2.02-0.9-2.02-2.02v-0.02c0-1.11 0.9-2.02 2.02-2.02h16.19c1.11 0 2.02 0.9 2.02 2.02v0.02c-0.01 1.12-0.91 2.02-2.02 2.02z"/> <path class="st8" d="m431.68 167.5h-28.85c-1.11 0-2.02-0.9-2.02-2.02v-0.02c0-1.11 0.9-2.02 2.02-2.02h28.85c1.11 0 2.02 0.9 2.02 2.02v0.02c-0.01 1.12-0.91 2.02-2.02 2.02z"/> <path class="st14" d="m529.43 311.55h-59.83c-4.85 0-8.77-3.93-8.77-8.77v-151.39c0-4.85 3.93-8.77 8.77-8.77h59.83c4.85 0 8.77 3.93 8.77 8.77v151.39c0 4.84-3.93 8.77-8.77 8.77z"/> <path class="st14" d="m235.26 311.55h-37.19c-4.85 0-8.77-3.93-8.77-8.77v-63.08c0-4.85 3.93-8.77 8.77-8.77h37.19c4.85 0 8.77 3.93 8.77 8.77v63.07c0 4.85-3.92 8.78-8.77 8.78z"/> <path class="st8" d="m212.88 248.14h-16.19c-1.11 0-2.02-0.9-2.02-2.02v-0.02c0-1.11 0.9-2.02 2.02-2.02h16.19c1.11 0 2.02 0.9 2.02 2.02v0.02c0 1.11-0.91 2.02-2.02 2.02z"/> <path class="st8" d="m225.54 255.81h-28.85c-1.11 0-2.02-0.9-2.02-2.02v-0.02c0-1.11 0.9-2.02 2.02-2.02h28.85c1.11 0 2.02 0.9 2.02 2.02v0.02c0 1.12-0.91 2.02-2.02 2.02z"/> <path class="st14" d="m303.97 311.55h-37.19c-4.85 0-8.77-3.93-8.77-8.77v-63.08c0-4.85 3.93-8.77 8.77-8.77h37.19c4.85 0 8.77 3.93 8.77 8.77v63.07c0.01 4.85-3.92 8.78-8.77 8.78z"/> <path class="st8" d="m281.59 248.14h-16.19c-1.11 0-2.02-0.9-2.02-2.02v-0.02c0-1.11 0.9-2.02 2.02-2.02h16.19c1.11 0 2.02 0.9 2.02 2.02v0.02c0 1.11-0.9 2.02-2.02 2.02z"/> <path class="st8" d="m294.25 255.81h-28.85c-1.11 0-2.02-0.9-2.02-2.02v-0.02c0-1.11 0.9-2.02 2.02-2.02h28.85c1.11 0 2.02 0.9 2.02 2.02v0.02c0 1.12-0.9 2.02-2.02 2.02z"/> <path class="st14" d="m372.69 311.55h-37.19c-4.85 0-8.77-3.93-8.77-8.77v-63.08c0-4.85 3.93-8.77 8.77-8.77h37.19c4.85 0 8.77 3.93 8.77 8.77v63.07c0 4.85-3.93 8.78-8.77 8.78z"/> <path class="st8" d="m350.3 248.14h-16.19c-1.11 0-2.02-0.9-2.02-2.02v-0.02c0-1.11 0.9-2.02 2.02-2.02h16.19c1.11 0 2.02 0.9 2.02 2.02v0.02c0 1.11-0.9 2.02-2.02 2.02z"/> <path class="st8" d="m362.96 255.81h-28.85c-1.11 0-2.02-0.9-2.02-2.02v-0.02c0-1.11 0.9-2.02 2.02-2.02h28.85c1.11 0 2.02 0.9 2.02 2.02v0.02c0 1.12-0.9 2.02-2.02 2.02z"/> <path class="st14" d="m441.4 311.55h-37.19c-4.85 0-8.77-3.93-8.77-8.77v-63.08c0-4.85 3.93-8.77 8.77-8.77h37.19c4.85 0 8.77 3.93 8.77 8.77v63.07c0 4.85-3.93 8.78-8.77 8.78z"/> <path class="st8" d="m419.02 248.14h-16.19c-1.11 0-2.02-0.9-2.02-2.02v-0.02c0-1.11 0.9-2.02 2.02-2.02h16.19c1.11 0 2.02 0.9 2.02 2.02v0.02c-0.01 1.11-0.91 2.02-2.02 2.02z"/> <path class="st8" d="m431.68 255.81h-28.85c-1.11 0-2.02-0.9-2.02-2.02v-0.02c0-1.11 0.9-2.02 2.02-2.02h28.85c1.11 0 2.02 0.9 2.02 2.02v0.02c-0.01 1.12-0.91 2.02-2.02 2.02z"/> <path class="st8" d="m493.88 162.64h-17.74c-2.08 0-3.76-1.68-3.76-3.76v-0.04c0-2.08 1.68-3.76 3.76-3.76h17.74c2.08 0 3.76 1.68 3.76 3.76v0.04c0 2.08-1.68 3.76-3.76 3.76z"/> <path class="st8" d="m493.88 186.71h-17.74c-2.08 0-3.76-1.68-3.76-3.76v-0.04c0-2.08 1.68-3.76 3.76-3.76h17.74c2.08 0 3.76 1.68 3.76 3.76v0.04c0 2.07-1.68 3.76-3.76 3.76z"/> <path class="st8" d="m493.88 210.78h-17.74c-2.08 0-3.76-1.68-3.76-3.76v-0.04c0-2.08 1.68-3.76 3.76-3.76h17.74c2.08 0 3.76 1.68 3.76 3.76v0.04c0 2.07-1.68 3.76-3.76 3.76z"/> <path class="st8" d="m493.88 234.85h-17.74c-2.08 0-3.76-1.68-3.76-3.76v-0.04c0-2.08 1.68-3.76 3.76-3.76h17.74c2.08 0 3.76 1.68 3.76 3.76v0.04c0 2.07-1.68 3.76-3.76 3.76z"/> <rect class="st15" x="115.54" y="343.47" width="126.79" height="91.51"/> <polygon class="st15" points="80.25 470.28 115.54 434.98 115.54 343.5 80.25 378.76"/> <polygon class="st9" points="87.5 313.5 115.54 343.5 80.25 378.76 52.21 348.76"/> <polygon class="st16" points="115.54 343.5 115.54 378.76 80.25 378.76"/> <path class="st17" d="m261.13 322.17c0.4 0.6-8.77 3.2-19.32 8.79-10.68 4.97-22.75 12.93-31.11 10.04 0.25 0.52 3.13-8.1 12.97-15.04 9.2-6.91 25.36-12.13 37.46-3.79z"/> <path class="st18" d="m211.84 340.07c2.63-1.72 5.7-3.75 9.15-5.7s7.28-3.85 11.34-5.52 8.37-3.11 12.72-4.27c2.18-0.58 4.35-1.12 6.53-1.58 2.17-0.48 4.31-0.94 6.41-1.35-2.09 0.46-4.22 0.94-6.37 1.46-2.16 0.49-4.33 1.07-6.5 1.68-4.34 1.22-8.63 2.72-12.69 4.46-4.06 1.73-7.88 3.7-11.32 5.73-3.44 2.02-6.49 4.13-9.11 5.94-0.05-0.29-0.1-0.57-0.16-0.85z"/> <path class="st18" d="m216.15 337.49c1.17 0.4 2.34 0.81 3.5 1.23-1.2-0.28-2.4-0.54-3.59-0.79 0.03-0.15 0.06-0.29 0.09-0.44z"/> <path class="st18" d="m221.75 334.09c1.59 0.4 3.17 0.84 4.76 1.31-1.63-0.34-3.26-0.63-4.86-0.88 0.03-0.14 0.07-0.29 0.1-0.43z"/> <path class="st18" d="m227.67 330.99c1.98 0.3 3.97 0.67 5.97 1.14-2.04-0.33-4.07-0.56-6.07-0.71 0.04-0.15 0.07-0.29 0.1-0.43z"/> <path class="st18" d="m236.51 327.25c1.71 0.44 3.41 0.95 5.1 1.54-1.73-0.46-3.47-0.84-5.21-1.13 0.03-0.14 0.07-0.27 0.11-0.41z"/> <path class="st18" d="m244.73 324.65c1.22 0.36 2.43 0.77 3.63 1.22-1.23-0.35-2.46-0.66-3.69-0.91 0.02-0.11 0.04-0.21 0.06-0.31z"/> <path class="st18" d="m250.97 323.15c0.78 0.25 1.56 0.52 2.33 0.81-0.78-0.26-1.56-0.49-2.34-0.71 0-0.03 0-0.06 0.01-0.1z"/> <path class="st18" d="m248.54 323.7c0.67-0.92 1.34-1.83 2.01-2.74l-1.83 2.88c-0.06-0.05-0.12-0.1-0.18-0.14z"/> <path class="st18" d="m241.28 325.69c0.82-1.32 1.65-2.64 2.47-3.96-0.73 1.38-1.47 2.75-2.21 4.12-0.08-0.05-0.17-0.11-0.26-0.16z"/> <path class="st18" d="m232.63 328.79c0.9-1.52 1.82-3.03 2.74-4.53-0.81 1.57-1.62 3.14-2.42 4.72-0.11-0.07-0.21-0.13-0.32-0.19z"/> <path class="st18" d="m224.72 332.52c0.63-1.67 1.26-3.34 1.89-5-0.52 1.71-1.05 3.41-1.58 5.11-0.1-0.03-0.21-0.07-0.31-0.11z"/> <path class="st18" d="m218.73 335.89c0.58-1.26 1.17-2.51 1.79-3.76-0.52 1.31-1.03 2.62-1.53 3.93-0.09-0.05-0.17-0.11-0.26-0.17z"/> <path class="st17" d="m49.87 343.75c-0.61 0.52 8.62 5.94 18.48 14.94 10.18 8.38 20.99 20.34 30.99 19.69-0.43 0.48-1.01-9.52-9.69-19.75-8-10-24.08-20.24-39.78-14.88z"/> <path class="st18" d="m98.36 377.07c-2.36-2.59-5.11-5.64-8.3-8.71-3.19-3.08-6.8-6.21-10.74-9.16s-8.21-5.73-12.61-8.22c-2.21-1.24-4.42-2.45-6.66-3.57-2.22-1.14-4.42-2.24-6.6-3.3 2.15 1.09 4.32 2.23 6.52 3.4 2.21 1.15 4.41 2.39 6.6 3.67 4.37 2.56 8.61 5.39 12.53 8.42 3.92 3.02 7.5 6.22 10.65 9.37 3.16 3.14 5.86 6.27 8.19 8.95 0.14-0.29 0.28-0.57 0.42-0.85z"/> <path class="st18" d="m94.42 373.08c-1.4 0.09-2.79 0.18-4.19 0.29 1.4 0.06 2.78 0.12 4.15 0.2 0.02-0.17 0.03-0.33 0.04-0.49z"/> <path class="st18" d="m89.32 367.84c-1.85-0.03-3.71-0.03-5.59 0.01 1.88 0.12 3.74 0.28 5.57 0.48 0.01-0.17 0.01-0.33 0.02-0.49z"/> <path class="st18" d="m83.78 362.82c-2.25-0.26-4.54-0.44-6.86-0.52 2.33 0.24 4.61 0.58 6.83 1 0.02-0.16 0.03-0.32 0.03-0.48z"/> <path class="st18" d="m75.24 356.29c-1.99-0.03-4.01 0.02-6.03 0.16 2.03 0.01 4.04 0.12 6.02 0.31 0.01-0.16 0.01-0.32 0.01-0.47z"/> <path class="st18" d="m67.04 351.14c-1.43 0.03-2.88 0.11-4.32 0.24 1.44-0.02 2.88 0.01 4.3 0.1 0.01-0.11 0.01-0.23 0.02-0.34z"/> <path class="st18" d="m60.67 347.74c-0.93 0.04-1.85 0.1-2.78 0.19 0.93-0.05 1.85-0.07 2.77-0.07 0-0.04 0-0.08 0.01-0.12z"/> <path class="st18" d="m63.16 349.02c-0.46-1.17-0.92-2.33-1.38-3.5 0.38 1.2 0.76 2.39 1.14 3.59l0.24-0.09z"/> <path class="st18" d="m70.5 353.25c-0.5-1.64-1.01-3.29-1.52-4.93 0.39 1.67 0.79 3.35 1.18 5.02 0.11-0.03 0.22-0.06 0.34-0.09z"/> <path class="st18" d="m79.02 359.05c-0.53-1.88-1.08-3.75-1.65-5.61 0.42 1.9 0.83 3.81 1.24 5.71 0.14-0.03 0.27-0.06 0.41-0.1z"/> <path class="st18" d="m86.55 365.31c-0.19-1.96-0.38-3.91-0.58-5.86 0.06 1.96 0.13 3.93 0.2 5.89 0.13-0.01 0.25-0.02 0.38-0.03z"/> <path class="st18" d="m92.08 370.63c-0.25-1.5-0.53-3.01-0.83-4.51 0.18 1.54 0.35 3.08 0.5 4.62 0.11-0.04 0.22-0.07 0.33-0.11z"/> <path class="st18" d="m270.71 282.51c0.28 0.69-9.16 0.84-21.58 5.41-12.43 4.31-27.83 13.06-39.58 24.93-11.87 11.76-20.09 26.64-21.06 40.68-1.22 14.08 4.79 27.31 15.61 36.64 0.97 0.63 1.45-18.09 14.44-40.29 11.61-22.42 35.73-48.32 52.17-67.37z"/> <path class="st19" d="m203.46 386.38c-1.84-8.18-2.22-17.03-1.1-26.11 1.14-9.08 3.85-18.44 8.46-27.6 4.6-9.15 11.12-18.12 19.83-26.12 4.34-4 9.29-7.72 14.73-11.09 5.48-3.35 11.53-6.27 18.08-8.67-6.6 2.35-12.73 5.23-18.29 8.55-5.51 3.34-10.56 7.04-14.98 11.04-8.88 7.99-15.58 17-20.33 26.21-4.76 9.22-7.6 18.66-8.84 27.83-1.22 9.18-0.91 18.09 0.91 26.43 0.5-0.16 1.01-0.32 1.53-0.47z"/> <path class="st19" d="m201.41 373.72c-2.21-2.37-4.42-4.72-6.65-7.07 1.98 2.56 3.97 5.11 5.97 7.66 0.22-0.2 0.45-0.4 0.68-0.59z"/> <path class="st19" d="m202.33 358.38c-2.09-3.27-4.17-6.55-6.23-9.83 1.76 3.48 3.56 6.93 5.4 10.36 0.28-0.18 0.56-0.36 0.83-0.53z"/> <path class="st19" d="m206.08 343.56c-1.27-4.17-2.46-8.37-3.56-12.61 0.74 4.38 1.6 8.72 2.58 13.02 0.33-0.14 0.65-0.28 0.98-0.41z"/> <path class="st19" d="m216.12 323.54c-0.34-3.48-0.62-6.98-0.82-10.49-0.2 3.61-0.29 7.2-0.29 10.78 0.36-0.1 0.74-0.19 1.11-0.29z"/> <path class="st19" d="m230.07 307.16c0.52-2.39 1.08-4.78 1.7-7.17-0.93 2.4-1.8 4.81-2.61 7.22 0.3-0.01 0.61-0.03 0.91-0.05z"/> <path class="st19" d="m243.81 296.4c0.76-1.44 1.55-2.87 2.36-4.29-0.92 1.41-1.81 2.84-2.67 4.26 0.1 0.02 0.21 0.03 0.31 0.03z"/> <path class="st19" d="m238.11 300.39c3.6-0.85 7.24-1.58 10.91-2.18-3.69 0.48-7.35 1.08-10.99 1.81 0.02 0.12 0.05 0.24 0.08 0.37z"/> <path class="st19" d="m223.54 313.75c4.32-1.57 8.71-2.94 13.17-4.12-4.51 0.99-8.96 2.18-13.36 3.58 0.07 0.18 0.13 0.36 0.19 0.54z"/> <path class="st19" d="m211 332.04c3.94-2.37 8.02-4.54 12.21-6.52-4.31 1.75-8.53 3.72-12.63 5.89 0.15 0.2 0.29 0.41 0.42 0.63z"/> <path class="st19" d="m203.77 350.83c3.4-2.34 6.92-4.52 10.53-6.52-3.73 1.77-7.38 3.74-10.94 5.88 0.14 0.22 0.27 0.43 0.41 0.64z"/> <path class="st19" d="m201.44 366.5c1.86-2.28 3.82-4.51 5.88-6.67-2.25 1.99-4.42 4.06-6.5 6.21 0.2 0.15 0.41 0.31 0.62 0.46z"/> <path class="st18" d="m52.76 366.81c0.05 0.29 3.37-1.59 8.66-2.57 5.24-1.08 12.45-1.26 19.03 0.37 6.61 1.56 12.6 4.94 15.89 9.5 3.38 4.53 4.06 10.25 2.25 15.63-0.2 0.41-4.3-5.84-13.49-10.72-8.77-5.24-22.62-9.1-32.34-12.21z"/> <path class="st19" d="m98.01 388.32c-1.08-3.15-2.8-6.24-5.1-9.09s-5.21-5.47-8.74-7.64c-3.53-2.16-7.68-3.88-12.4-4.81-2.35-0.47-4.86-0.72-7.46-0.75-2.61-0.02-5.34 0.23-8.12 0.75 2.79-0.55 5.54-0.83 8.17-0.84 2.62 0.01 5.16 0.23 7.54 0.69 4.78 0.9 9 2.58 12.59 4.74 3.6 2.16 6.57 4.78 8.92 7.64 2.35 2.87 4.12 5.95 5.23 9.16l-0.63 0.15z"/> <path class="st19" d="m96.07 383.6c0.27-1.25 0.55-2.51 0.83-3.76-0.15 1.27-0.31 2.55-0.47 3.82-0.12-0.02-0.24-0.04-0.36-0.06z"/> <path class="st19" d="m92.52 378.59c0.04-1.54 0.08-3.07 0.11-4.61 0.12 1.54 0.21 3.08 0.29 4.62-0.13-0.01-0.26-0.01-0.4-0.01z"/> <path class="st19" d="m88.11 374.32c-0.43-1.67-0.9-3.34-1.41-5.01 0.66 1.64 1.27 3.29 1.83 4.95-0.14 0.02-0.28 0.04-0.42 0.06z"/> <path class="st19" d="m80.4 369.58c-0.61-1.25-1.25-2.5-1.92-3.73 0.83 1.18 1.61 2.38 2.37 3.6-0.15 0.04-0.3 0.09-0.45 0.13z"/> <path class="st19" d="m72.1 366.87c-0.68-0.71-1.38-1.4-2.1-2.09 0.83 0.63 1.64 1.27 2.43 1.92-0.11 0.06-0.22 0.12-0.33 0.17z"/> <path class="st19" d="m65.05 366.03c-0.57-0.33-1.14-0.66-1.72-0.97 0.62 0.29 1.23 0.59 1.83 0.9-0.04 0.02-0.08 0.05-0.11 0.07z"/> <path class="st19" d="m67.87 366.22c-1.43 0.45-2.85 0.94-4.26 1.49 1.39-0.59 2.79-1.14 4.21-1.63 0.02 0.04 0.04 0.09 0.05 0.14z"/> <path class="st19" d="m75.76 367.77c-1.83 0.35-3.65 0.78-5.46 1.3 1.78-0.59 3.58-1.09 5.41-1.52 0.02 0.08 0.03 0.15 0.05 0.22z"/> <path class="st19" d="m83.97 371.42c-1.87 0-3.75 0.1-5.63 0.28 1.87-0.29 3.75-0.48 5.64-0.58 0 0.1-0.01 0.2-0.01 0.3z"/> <path class="st19" d="m90.44 376.32c-1.68-0.1-3.36-0.12-5.04-0.06 1.67-0.16 3.36-0.24 5.05-0.24-0.01 0.1-0.01 0.2-0.01 0.3z"/> <path class="st19" d="m94.54 381.16c-1.13-0.39-2.28-0.75-3.45-1.06 1.2 0.22 2.39 0.48 3.57 0.78-0.04 0.09-0.08 0.19-0.12 0.28z"/> <path class="st20" d="m249.78 328.52c-0.36 0.98-9.91-1.32-22.77 6.85-11.85 7.44-26.99 25.33-15.24 49.96-0.14 0.53 5.28-13.01 14.59-25.28 8.79-12.8 21.45-24.32 23.42-31.53z"/> <path class="st21" d="m212 382.26c0.2-6.72 1.71-13.14 3.94-18.98 2.24-5.84 5.26-11.12 8.68-15.66 3.43-4.54 7.26-8.35 11.2-11.32 1.96-1.49 3.98-2.75 5.98-3.82 2.01-1.06 4.03-1.88 6.03-2.52-2.02 0.61-4.07 1.41-6.11 2.43-2.02 1.04-4.07 2.27-6.07 3.74-4.01 2.92-7.93 6.68-11.45 11.2-3.52 4.51-6.65 9.77-9.01 15.63-2.35 5.86-3.99 12.28-4.31 19.13 0.37 0.06 0.74 0.11 1.12 0.17z"/> <path class="st21" d="m212.97 372.35c-0.89-2.41-1.68-4.85-2.36-7.32 0.5 2.52 1.12 5.03 1.84 7.51 0.17-0.06 0.34-0.12 0.52-0.19z"/> <path class="st21" d="m216.27 361.99c-0.53-2.85-0.92-5.71-1.18-8.58 0.08 2.89 0.29 5.78 0.64 8.68 0.18-0.04 0.36-0.07 0.54-0.1z"/> <path class="st21" d="m220.72 353.27c0.07-3.02 0.28-6.01 0.6-8.95-0.5 2.92-0.89 5.91-1.14 8.94 0.18 0.01 0.36 0.01 0.54 0.01z"/> <path class="st21" d="m228.21 343.3c0.28-2.13 0.62-4.24 1.01-6.3-0.55 2.03-1.06 4.11-1.52 6.23 0.16 0.02 0.33 0.04 0.51 0.07z"/> <path class="st21" d="m235.55 336.54c0.36-1.22 0.73-2.41 1.1-3.58-0.49 1.13-0.98 2.28-1.46 3.47 0.12 0.03 0.24 0.07 0.36 0.11z"/> <path class="st21" d="m241.22 332.78c0.29-0.64 0.58-1.26 0.86-1.87-0.32 0.6-0.65 1.2-0.98 1.82 0.04 0.01 0.08 0.03 0.12 0.05z"/> <path class="st21" d="m239.01 334.1c1.39 0.04 2.79 0.08 4.18 0.12-1.4-0.11-2.8-0.21-4.2-0.32 0 0.07 0.01 0.14 0.02 0.2z"/> <path class="st21" d="m232.4 339.09c1.91-0.1 3.83-0.2 5.74-0.29-1.92-0.01-3.84-0.03-5.76-0.05 0 0.11 0.01 0.22 0.02 0.34z"/> <path class="st21" d="m224.8 347.27c2.12-0.52 4.24-1.01 6.36-1.48-2.15 0.32-4.3 0.65-6.46 0.99 0.04 0.17 0.07 0.33 0.1 0.49z"/> <path class="st21" d="m218.35 357.37c2.13-0.57 4.26-1.13 6.38-1.68-2.16 0.39-4.32 0.77-6.48 1.14 0.03 0.18 0.06 0.36 0.1 0.54z"/> <path class="st21" d="m214.3 367.28c1.47-1 2.96-1.97 4.45-2.92-1.58 0.79-3.15 1.59-4.72 2.4 0.1 0.18 0.18 0.35 0.27 0.52z"/> <path class="st7" d="m171.1 233.83h-30.41c-0.28 0-0.51-0.23-0.51-0.51v-0.58c0-0.28 0.23-0.51 0.51-0.51h30.41c0.28 0 0.51 0.23 0.51 0.51v0.58c0 0.28-0.23 0.51-0.51 0.51z"/> <path class="st7" d="m211.75 431.67h-106.82c-2.12 0-3.84-1.72-3.84-3.84v-196.76c0-2.12 1.72-3.84 3.84-3.84h106.81c2.12 0 3.84 1.72 3.84 3.84v196.76c0.01 2.11-1.71 3.84-3.83 3.84z"/> <path class="st8" d="m209.95 434.11h-108.1c-1.77 0-3.2-1.43-3.2-3.2v-198.05c0-1.77 1.43-3.2 3.2-3.2h108.1c1.77 0 3.2 1.43 3.2 3.2v198.04c0 1.77-1.44 3.21-3.2 3.21z"/> <path class="st0" d="m102.1 429.33v-192.44c0-0.73 0.59-1.32 1.32-1.32h104.95c0.73 0 1.32 0.59 1.32 1.32v192.44c0 0.73-0.59 1.32-1.32 1.32h-104.95c-0.73 0-1.32-0.59-1.32-1.32z"/> <circle class="st14" cx="118.25" cy="251.8" r="6.38"/> <path class="st8" d="m112.73 254.99c1.1 1.9 3.16 3.18 5.52 3.18s4.42-1.28 5.52-3.18c-0.82-1.42-2.18-2.5-3.79-2.95 0.55-0.48 0.9-1.19 0.9-1.97 0-1.45-1.17-2.62-2.62-2.62s-2.62 1.17-2.62 2.62c0 0.79 0.35 1.49 0.9 1.97-1.63 0.45-2.99 1.53-3.81 2.95z"/> <path class="st14" d="m185.31 253.43h-54.92c-0.58 0-1.04-0.47-1.04-1.04v-1.17c0-0.58 0.47-1.04 1.04-1.04h54.92c0.58 0 1.04 0.47 1.04 1.04v1.17c0.01 0.57-0.46 1.04-1.04 1.04z"/> <path class="st14" d="m172.06 258.17h-42.19c-0.29 0-0.52-0.23-0.52-0.52v-0.59c0-0.29 0.23-0.52 0.52-0.52h42.19c0.29 0 0.52 0.23 0.52 0.52v0.59c0 0.29-0.24 0.52-0.52 0.52z"/> <circle class="st8" cx="114.46" cy="421.97" r="2.59"/> <linearGradient id="c" x1="121.77" x2="126.94" y1="90.03" y2="90.03" gradientTransform="matrix(1 0 0 -1 0 512)" gradientUnits="userSpaceOnUse"> <stop stop-color="#FFE6BB" offset="0"/> <stop stop-color="#FFDB90" offset="1"/> </linearGradient> <circle class="st22" cx="124.36" cy="421.97" r="2.59"/> <circle class="st10" cx="134.25" cy="421.97" r="2.59"/> <path class="st14" d="m151 324.29h-37.32c-1.47 0-2.65-1.19-2.65-2.65v-52.82c0-1.47 1.19-2.65 2.65-2.65h37.32c1.47 0 2.65 1.19 2.65 2.65v52.82c0.01 1.46-1.18 2.65-2.65 2.65z"/> <defs> <path id="b" d="m151 324.29h-37.32c-1.47 0-2.65-1.19-2.65-2.65v-23.08c0-1.47 1.19-2.65 2.65-2.65h37.32c1.47 0 2.65 1.19 2.65 2.65v23.08c0.01 1.46-1.18 2.65-2.65 2.65z"/> </defs> <clipPath id="aa"> <use xlink:href="#b"/> </clipPath> <linearGradient id="a" x1="121.04" x2="128.33" y1="210.87" y2="210.87" gradientTransform="matrix(1 0 0 -1 0 512)" gradientUnits="userSpaceOnUse"> <stop stop-color="#FFE6BB" offset="0"/> <stop stop-color="#FFDB90" offset="1"/> </linearGradient> <circle class="st23" cx="124.68" cy="301.13" r="3.64"/> <defs> <path id="z" d="m151 324.29h-37.32c-1.47 0-2.65-1.19-2.65-2.65v-23.08c0-1.47 1.19-2.65 2.65-2.65h37.32c1.47 0 2.65 1.19 2.65 2.65v23.08c0.01 1.46-1.18 2.65-2.65 2.65z"/> </defs> <clipPath id="y"> <use xlink:href="#z"/> </clipPath> <g class="st24"> <path class="st9" d="m141.25 324.29c0-7.96-6.46-14.42-14.42-14.42s-14.42 6.46-14.42 14.42h28.84z"/> <path class="st8" d="m153.66 300.81c-12.97 0-23.48 10.51-23.48 23.48h23.48v-23.48z"/> </g> <path class="st14" d="m143.62 331.11h-31.92c-0.37 0-0.67-0.3-0.67-0.67v-1.72c0-0.37 0.3-0.67 0.67-0.67h31.92c0.37 0 0.67 0.3 0.67 0.67v1.72c-0.01 0.37-0.3 0.67-0.67 0.67z"/> <path class="st14" d="m152.99 334.7h-41.29c-0.37 0-0.67-0.3-0.67-0.67v-0.72c0-0.37 0.3-0.67 0.67-0.67h41.29c0.37 0 0.67 0.3 0.67 0.67v0.72c0 0.37-0.3 0.67-0.67 0.67z"/> <path class="st14" d="m198.1 324.29h-37.32c-1.47 0-2.65-1.19-2.65-2.65v-52.82c0-1.47 1.19-2.65 2.65-2.65h37.32c1.47 0 2.65 1.19 2.65 2.65v52.82c0.01 1.46-1.18 2.65-2.65 2.65z"/> <defs> <path id="x" d="m198.1 324.29h-37.32c-1.47 0-2.65-1.19-2.65-2.65v-23.08c0-1.47 1.19-2.65 2.65-2.65h37.32c1.47 0 2.65 1.19 2.65 2.65v23.08c0.01 1.46-1.18 2.65-2.65 2.65z"/> </defs> <clipPath id="w"> <use xlink:href="#x"/> </clipPath> <linearGradient id="v" x1="168.14" x2="175.43" y1="210.87" y2="210.87" gradientTransform="matrix(1 0 0 -1 0 512)" gradientUnits="userSpaceOnUse"> <stop stop-color="#FFE6BB" offset="0"/> <stop stop-color="#FFDB90" offset="1"/> </linearGradient> <circle class="st25" cx="171.78" cy="301.13" r="3.64"/> <defs> <path id="u" d="m198.1 324.29h-37.32c-1.47 0-2.65-1.19-2.65-2.65v-23.08c0-1.47 1.19-2.65 2.65-2.65h37.32c1.47 0 2.65 1.19 2.65 2.65v23.08c0.01 1.46-1.18 2.65-2.65 2.65z"/> </defs> <clipPath id="t"> <use xlink:href="#u"/> </clipPath> <g class="st26"> <path class="st9" d="m188.35 324.29c0-7.96-6.46-14.42-14.42-14.42s-14.42 6.46-14.42 14.42h28.84z"/> <path class="st8" d="m200.76 300.81c-12.97 0-23.48 10.51-23.48 23.48h23.48v-23.48z"/> </g> <path class="st14" d="m190.72 331.11h-31.92c-0.37 0-0.67-0.3-0.67-0.67v-1.72c0-0.37 0.3-0.67 0.67-0.67h31.92c0.37 0 0.67 0.3 0.67 0.67v1.72c-0.01 0.37-0.3 0.67-0.67 0.67z"/> <path class="st14" d="m200.09 334.7h-41.29c-0.37 0-0.67-0.3-0.67-0.67v-0.72c0-0.37 0.3-0.67 0.67-0.67h41.29c0.37 0 0.67 0.3 0.67 0.67v0.72c0 0.37-0.3 0.67-0.67 0.67z"/> <path class="st14" d="m151 399.88h-37.32c-1.47 0-2.65-1.19-2.65-2.65v-52.83c0-1.47 1.19-2.65 2.65-2.65h37.32c1.47 0 2.65 1.19 2.65 2.65v52.82c0.01 1.47-1.18 2.66-2.65 2.66z"/> <defs> <path id="s" d="m151 399.88h-37.32c-1.47 0-2.65-1.19-2.65-2.65v-23.08c0-1.47 1.19-2.65 2.65-2.65h37.32c1.47 0 2.65 1.19 2.65 2.65v23.08c0.01 1.46-1.18 2.65-2.65 2.65z"/> </defs> <clipPath id="r"> <use xlink:href="#s"/> </clipPath> <linearGradient id="p" x1="121.04" x2="128.33" y1="135.28" y2="135.28" gradientTransform="matrix(1 0 0 -1 0 512)" gradientUnits="userSpaceOnUse"> <stop stop-color="#FFE6BB" offset="0"/> <stop stop-color="#FFDB90" offset="1"/> </linearGradient> <circle class="st27" cx="124.68" cy="376.72" r="3.64"/> <defs> <path id="o" d="m151 399.88h-37.32c-1.47 0-2.65-1.19-2.65-2.65v-23.08c0-1.47 1.19-2.65 2.65-2.65h37.32c1.47 0 2.65 1.19 2.65 2.65v23.08c0.01 1.46-1.18 2.65-2.65 2.65z"/> </defs> <clipPath id="n"> <use xlink:href="#o"/> </clipPath> <g class="st28"> <path class="st9" d="m141.25 399.88c0-7.96-6.46-14.42-14.42-14.42s-14.42 6.46-14.42 14.42h28.84z"/> <path class="st8" d="M153.66,376.4c-12.97,0-23.48,10.51-23.48,23.48h23.48V376.4z"/> </g> <path class="st14" d="m143.62 406.7h-31.92c-0.37 0-0.67-0.3-0.67-0.67v-1.72c0-0.37 0.3-0.67 0.67-0.67h31.92c0.37 0 0.67 0.3 0.67 0.67v1.72c-0.01 0.37-0.3 0.67-0.67 0.67z"/> <path class="st14" d="m152.99 410.29h-41.29c-0.37 0-0.67-0.3-0.67-0.67v-0.72c0-0.37 0.3-0.67 0.67-0.67h41.29c0.37 0 0.67 0.3 0.67 0.67v0.72c0 0.37-0.3 0.67-0.67 0.67z"/> <path class="st14" d="m198.1 399.88h-37.32c-1.47 0-2.65-1.19-2.65-2.65v-52.83c0-1.47 1.19-2.65 2.65-2.65h37.32c1.47 0 2.65 1.19 2.65 2.65v52.82c0.01 1.47-1.18 2.66-2.65 2.66z"/> <defs> <path id="m" d="m198.1 399.88h-37.32c-1.47 0-2.65-1.19-2.65-2.65v-23.08c0-1.47 1.19-2.65 2.65-2.65h37.32c1.47 0 2.65 1.19 2.65 2.65v23.08c0.01 1.46-1.18 2.65-2.65 2.65z"/> </defs> <clipPath id="l"> <use xlink:href="#m"/> </clipPath> <linearGradient id="k" x1="168.14" x2="175.43" y1="135.28" y2="135.28" gradientTransform="matrix(1 0 0 -1 0 512)" gradientUnits="userSpaceOnUse"> <stop stop-color="#FFE6BB" offset="0"/> <stop stop-color="#FFDB90" offset="1"/> </linearGradient> <circle class="st29" cx="171.78" cy="376.72" r="3.64"/> <defs> <path id="j" d="m198.1 399.88h-37.32c-1.47 0-2.65-1.19-2.65-2.65v-23.08c0-1.47 1.19-2.65 2.65-2.65h37.32c1.47 0 2.65 1.19 2.65 2.65v23.08c0.01 1.46-1.18 2.65-2.65 2.65z"/> </defs> <clipPath id="i"> <use xlink:href="#j"/> </clipPath> <g class="st30"> <path class="st9" d="m188.35 399.88c0-7.96-6.46-14.42-14.42-14.42s-14.42 6.46-14.42 14.42h28.84z"/> <path class="st8" d="M200.76,376.4c-12.97,0-23.48,10.51-23.48,23.48h23.48V376.4z"/> </g> <path class="st14" d="m190.72 406.7h-31.92c-0.37 0-0.67-0.3-0.67-0.67v-1.72c0-0.37 0.3-0.67 0.67-0.67h31.92c0.37 0 0.67 0.3 0.67 0.67v1.72c-0.01 0.37-0.3 0.67-0.67 0.67z"/> <path class="st14" d="m200.09 410.29h-41.29c-0.37 0-0.67-0.3-0.67-0.67v-0.72c0-0.37 0.3-0.67 0.67-0.67h41.29c0.37 0 0.67 0.3 0.67 0.67v0.72c0 0.37-0.3 0.67-0.67 0.67z"/> <rect class="st10" x="80.25" y="378.76" width="126.79" height="91.51"/> <polygon class="st8" points="207.04 470.28 242.34 434.98 242.34 343.5 207.04 378.76"/> <polygon class="st9" points="242.34 343.5 277.63 319.06 242.34 354.32 207.04 378.76"/> <path class="st10" d="m104.45 311.03h-16.35c-3.36 0-6.08-2.72-6.08-6.08v-6.76c0-3.36 2.72-6.08 6.08-6.08h16.36c3.36 0 6.08 2.72 6.08 6.08v6.76c-0.01 3.36-2.73 6.08-6.09 6.08z"/> <path class="st8" d="m104.26 312.07h-18.04c-2.89 0-5.24-2.35-5.24-5.24v-8.44c0-2.89 2.35-5.24 5.24-5.24h18.03c2.89 0 5.24 2.35 5.24 5.24v8.44c0.01 2.89-2.34 5.24-5.23 5.24z"/> <polygon class="st10" points="110.5 295.73 116.27 295.73 110.5 300.57"/> <polygon class="st8" points="109.5 296.73 115.26 296.73 109.5 301.57"/> <polygon class="st10" points="115.26 296.73 116.27 295.73 110.5 295.73 109.5 296.73"/> <path class="st31" d="m102.08 300.98v0.17c-0.02 0.03-0.05 0.06-0.06 0.1-0.34 1.61-0.67 3.23-1 4.84-0.05 0.22-0.09 0.43-0.13 0.65-0.1 0.59-0.47 0.92-1.02 1.08h-5.92v-7.79c0-0.2 0.05-0.32 0.26-0.37 0.27-0.06 0.48-0.23 0.68-0.42 0.4-0.39 0.55-0.87 0.53-1.42-0.02-0.46 0.13-0.84 0.46-1.17 0.26-0.26 0.59-0.33 0.92-0.44h0.17c0.03 0.02 0.06 0.05 0.1 0.06 0.56 0.1 0.94 0.43 1.13 0.96 0.27 0.75 0.26 1.51 0.07 2.27-0.06 0.24 0.01 0.28 0.22 0.27 0.75-0.01 1.51 0 2.26 0 0.36 0 0.67 0.13 0.93 0.38 0.25 0.24 0.3 0.54 0.4 0.83z"/> <path class="st31" d="m90.47 300.69c0.09-0.1 0.07-0.24 0.13-0.35 0.19-0.35 0.46-0.56 0.87-0.56 0.39 0 0.77 0.01 1.16-0.01 0.23-0.01 0.27 0.08 0.27 0.28-0.01 2.47 0 4.93 0 7.39 0 0.13 0.01 0.25 0.02 0.38h-1.52c-0.29-0.12-0.6-0.19-0.75-0.51-0.06-0.14-0.12-0.28-0.17-0.42-0.01-2.06-0.01-4.13-0.01-6.2z"/> <path class="st10" d="m198.82 261.28h-0.09c-4.36 0-7.89-3.53-7.89-7.89v-0.09c0-4.36 3.53-7.89 7.89-7.89h0.09c4.36 0 7.89 3.53 7.89 7.89v0.09c0 4.36-3.53 7.89-7.89 7.89z"/> <path class="st8" d="m198.19 261.91h-0.09c-4.36 0-7.89-3.53-7.89-7.89v-0.09c0-4.36 3.53-7.89 7.89-7.89h0.09c4.36 0 7.89 3.53 7.89 7.89v0.09c0 4.36-3.53 7.89-7.89 7.89z"/> <path class="st31" d="m202.27 250.5c-1.15-1.15-2.95-1.18-4.13-0.12-1.18-1.06-2.98-1.02-4.1 0.09-1.15 1.15-1.18 3.01-0.03 4.16l0.03 0.03 3.45 3.42c0.37 0.37 0.96 0.37 1.34 0l3.45-3.42c1.14-1.15 1.14-3.01-0.01-4.16z"/> <path class="st8" d="m195.35 261v1.89c0 0.38 0.42 0.61 0.74 0.41l3.54-2.19-4.28-0.11z"/> <line class="st12" x1="227.93" x2="427.51" y1="449.38" y2="449.38"/> <rect class="st7" x="224.05" y="446.23" width="8.21" height="6.3"/> <rect class="st15" x="458.54" y="367.98" width="111.49" height="71.27"/> <polygon class="st15" points="427.51 470.28 458.54 439.24 458.54 368.01 427.51 399.01"/> <rect class="st10" x="427.51" y="399.01" width="111.49" height="71.27"/> <polygon class="st9" points="507.02 354.58 458.54 368.01 427.51 399.01 475.99 385.59"/> <polygon class="st9" points="570.04 368.01 519.53 356.03 488.5 387.03 539 399.01"/> <polygon class="st8" points="539 470.28 570.04 439.24 570.04 368.01 539 399.01"/> </svg>